<?xml version="1.0" encoding="utf-8"?>
<!-- Generator: Adobe Illustrator 27.2.0, SVG Export Plug-In . SVG Version: 6.00 Build 0)  -->
<svg version="1.1" id="Calque_2_00000029753347600929932890000011884742366000722834_"
	 xmlns="http://www.w3.org/2000/svg" xmlns:xlink="http://www.w3.org/1999/xlink" x="0px" y="0px" viewBox="0 0 50 50"
	 style="enable-background:new 0 0 50 50;" xml:space="preserve">
<style type="text/css">
	.st0{fill:#FFFFFF;}
</style>
<g id="Calque_1-2">
	<g>
		<g>
			<circle class="st0" cx="25" cy="25" r="29.4"/>
			<path class="st0" d="M25-3.8c15.8,0,28.8,13,28.8,28.8S40.8,53.8,25,53.8S-3.8,40.8-3.8,25S9.2-3.8,25-3.8 M25-5
				C8.4-5-5,8.4-5,25S8.4,55,25,55s30-13.4,30-30S41.6-5,25-5L25-5z"/>
		</g>
		<path d="M20.6,40.1L4.7,24.3L20.6,8.4h6.7L12.9,22h30.8v4.6H13l14.4,13.6h-6.7H20.6z"/>
	</g>
</g>
</svg>
