<?xml version="1.0" encoding="UTF-8"?>
<svg id="Calque_2" data-name="Calque 2" xmlns="http://www.w3.org/2000/svg" width="60" height="60" viewBox="0 0 60 60">
  <g id="Calque_2-2" data-name="Calque 2">
    <g id="Calque_1-2" data-name="Calque 1-2">
      <g>
        <g>
          <circle cx="30" cy="30" r="29.7" style="fill: #fff;"/>
          <path d="m30,.6c16.2,0,29.4,13.2,29.4,29.4s-13.2,29.4-29.4,29.4S.6,46.2.6,30,13.8.6,30,.6m0-.6C13.5,0,0,13.5,0,30s13.5,30,30,30,30-13.5,30-30S46.5,0,30,0h0Z" style="fill: #fff;"/>
        </g>
        <polygon points="42.3 20.1 37.2 20.1 45.9 28.3 32.5 28.3 27.5 28.3 14.1 28.3 22.8 20.1 17.7 20.1 7.8 30 17.7 39.9 22.8 39.9 14.1 31.7 27.5 31.7 32.5 31.7 45.9 31.7 37.2 39.9 42.3 39.9 52.2 30 42.3 20.1"/>
      </g>
    </g>
  </g>
</svg>