<?xml version="1.0" encoding="UTF-8"?><svg id="Calque_2" xmlns="http://www.w3.org/2000/svg" viewBox="0 0 714.15 276.5"><g id="Calque_1-2"><path d="m0,0v274.43h274.43V0H0Zm134.71,244.27c-59.87,0-108.41-48.54-108.41-108.41S74.84,27.46,134.71,27.46s108.41,48.54,108.41,108.41-48.54,108.41-108.41,108.41Z"/><g><path d="m335.57,0h20.47l26.8,79.35h-10.47l-8.05-23.92h-37.03l-8.05,23.92h-10.47L335.57,0Zm-5.52,47.15h31.51L345.8.46l-15.76,46.69Z"/><path d="m376.28,0h63.25v8.28h-26.68v71.07h-9.89V8.28h-26.68V0Z"/><path d="m449.3,0h45.66v8.28h-35.77v26.22h34.73v8.28h-34.73v28.29h36.69v8.28h-46.58V0Z"/><path d="m557.06,79.35h-46.12V0h9.89v71.07h36.23v8.28Z"/><path d="m566.94,79.35V0h9.89v79.35h-9.89Z"/><path d="m595.92,0h45.66v8.28h-35.77v26.22h34.73v8.28h-34.73v28.29h36.69v8.28h-46.58V0Z"/><path d="m657.56,0h24.61c19.21,0,30.48,8.17,30.48,22.89,0,11.27-6.56,18.75-18.29,21.62l19.78,34.85h-11.39l-18.98-33.47h-16.33v33.47h-9.89V0Zm9.89,8.28v29.33h15.87c12.31,0,18.63-5.18,18.63-14.72s-6.33-14.61-18.63-14.61h-15.87Z"/><path d="m370.07,98h19.9v79.35h-9.89v-78.89l-20.36,78.89h-20.47l-20.36-78.89v78.89h-9.89v-79.35h19.9l20.59,78.89,20.59-78.89Z"/><path d="m409.05,177.35v-79.35h9.89v79.35h-9.89Z"/><path d="m438.03,98h22.89c25.3,0,40.48,16.33,40.48,39.68s-15.18,39.68-40.48,39.68h-22.89v-79.35Zm9.89,8.28v62.79h11.85c19.55,0,30.94-11.04,30.94-31.4s-11.39-31.4-30.94-31.4h-11.85Z"/><path d="m515.65,177.35v-79.35h9.89v79.35h-9.89Z"/><path d="m370.07,196h19.9v79.35h-9.89v-78.89l-20.36,78.89h-20.47l-20.36-78.89v78.89h-9.89v-79.35h19.9l20.59,78.89,20.59-78.89Z"/><path d="m409.05,275.35v-79.35h9.89v79.35h-9.89Z"/><path d="m500.13,275.35h-20.36l-31.86-78.89v78.89h-9.89v-79.35h20.36l31.86,78.89v-78.89h9.89v79.35Z"/><path d="m567.18,196h9.89v47.73c0,22.54-10.92,32.78-29.33,32.78s-29.33-10.24-29.33-32.78v-47.73h9.89v49.45c0,13.8,5.63,22.77,19.44,22.77s19.44-8.97,19.44-22.77v-49.45Z"/><path d="m595.35,275.35v-79.35h9.89v79.35h-9.89Z"/><path d="m615.01,196h63.25v8.28h-26.68v71.07h-9.89v-71.07h-26.68v-8.28Z"/></g></g></svg>