<?xml version="1.0" encoding="utf-8"?>
<!-- Generator: Adobe Illustrator 27.2.0, SVG Export Plug-In . SVG Version: 6.00 Build 0)  -->
<svg version="1.1" id="Calque_2_00000159456183179582853320000007475645284230381996_"
	 xmlns="http://www.w3.org/2000/svg" xmlns:xlink="http://www.w3.org/1999/xlink" x="0px" y="0px" viewBox="0 0 714.2 276.5"
	 style="enable-background:new 0 0 714.2 276.5;" xml:space="preserve">
<style type="text/css">
	.st0{fill:#FFFFFF;}
</style>
<g id="Calque_1-2">
	<path class="st0" d="M0,0v274.4h274.4V0H0z M134.7,244.3c-59.9,0-108.4-48.5-108.4-108.4S74.8,27.5,134.7,27.5
		S243.1,76,243.1,135.9S194.6,244.3,134.7,244.3L134.7,244.3z"/>
	<g>
		<path class="st0" d="M335.6,0H356l26.8,79.3h-10.5l-8-23.9h-37l-8,23.9h-10.5L335.6,0z M330.1,47.2h31.5L345.8,0.5L330.1,47.2
			L330.1,47.2z"/>
		<path class="st0" d="M376.3,0h63.2v8.3h-26.7v71.1H403V8.3h-26.7V0z"/>
		<path class="st0" d="M449.3,0H495v8.3h-35.8v26.2h34.7v8.3h-34.7v28.3h36.7v8.3h-46.6V0z"/>
		<path class="st0" d="M557.1,79.3h-46.1V0h9.9v71.1h36.2V79.3z"/>
		<path class="st0" d="M566.9,79.3V0h9.9v79.3H566.9z"/>
		<path class="st0" d="M595.9,0h45.7v8.3h-35.8v26.2h34.7v8.3h-34.7v28.3h36.7v8.3h-46.6L595.9,0L595.9,0z"/>
		<path class="st0" d="M657.6,0h24.6c19.2,0,30.5,8.2,30.5,22.9c0,11.3-6.6,18.8-18.3,21.6l19.8,34.8h-11.4l-19-33.5h-16.3v33.5
			h-9.9L657.6,0L657.6,0z M667.5,8.3v29.3h15.9c12.3,0,18.6-5.2,18.6-14.7s-6.3-14.6-18.6-14.6H667.5z"/>
		<path class="st0" d="M370.1,98H390v79.4h-9.9V98.5l-20.4,78.9h-20.5l-20.4-78.9v78.9H309V98h19.9l20.6,78.9L370.1,98L370.1,98z"/>
		<path class="st0" d="M409,177.4V98h9.9v79.3H409z"/>
		<path class="st0" d="M438,98h22.9c25.3,0,40.5,16.3,40.5,39.7s-15.2,39.7-40.5,39.7H438L438,98L438,98z M447.9,106.3v62.8h11.9
			c19.5,0,30.9-11,30.9-31.4s-11.4-31.4-30.9-31.4L447.9,106.3L447.9,106.3z"/>
		<path class="st0" d="M515.7,177.4V98h9.9v79.3H515.7z"/>
		<path class="st0" d="M370.1,196H390v79.4h-9.9v-78.9l-20.4,78.9h-20.5l-20.4-78.9v78.9H309V196h19.9l20.6,78.9L370.1,196
			L370.1,196z"/>
		<path class="st0" d="M409,275.4V196h9.9v79.4H409z"/>
		<path class="st0" d="M500.1,275.4h-20.4l-31.9-78.9v78.9H438V196h20.4l31.9,78.9V196h9.9V275.4z"/>
		<path class="st0" d="M567.2,196h9.9v47.7c0,22.5-10.9,32.8-29.3,32.8s-29.3-10.2-29.3-32.8V196h9.9v49.4
			c0,13.8,5.6,22.8,19.4,22.8s19.4-9,19.4-22.8V196z"/>
		<path class="st0" d="M595.3,275.4V196h9.9v79.4H595.3z"/>
		<path class="st0" d="M615,196h63.2v8.3h-26.7v71.1h-9.9v-71.1H615V196z"/>
	</g>
</g>
</svg>
